<mxfile host="app.diagrams.net" modified="2022-03-08T08:10:28.519Z" agent="5.0 (Windows NT 10.0; Win64; x64) AppleWebKit/537.36 (KHTML, like Gecko) Chrome/98.0.4758.102 Safari/537.36" etag="69ayLHXk-76pw6_T7CKP" version="16.6.7" type="github">
  <diagram id="yDzZc0dlQy_0Nbfenxcv" name="Page-1">
    <mxGraphModel dx="1422" dy="794" grid="1" gridSize="10" guides="1" tooltips="1" connect="1" arrows="1" fold="1" page="1" pageScale="1" pageWidth="1100" pageHeight="850" math="0" shadow="1">
      <root>
        <mxCell id="0" />
        <mxCell id="1" parent="0" />
        <mxCell id="j3_hDJr5HbZZ_XaoxttT-1" value="Home" style="rounded=0;whiteSpace=wrap;html=1;fillColor=#1ba1e2;fontColor=#ffffff;strokeColor=#66B2FF;fontSize=25;" parent="1" vertex="1">
          <mxGeometry x="480" y="80" width="120" height="80" as="geometry" />
        </mxCell>
        <mxCell id="j3_hDJr5HbZZ_XaoxttT-2" value="Products" style="rounded=0;whiteSpace=wrap;html=1;strokeColor=#B266FF;fillColor=#B266FF;fontColor=#ffffff;fontSize=20;" parent="1" vertex="1">
          <mxGeometry x="40" y="240" width="120" height="40" as="geometry" />
        </mxCell>
        <mxCell id="j3_hDJr5HbZZ_XaoxttT-3" value="Cart" style="rounded=0;whiteSpace=wrap;html=1;strokeColor=#B266FF;fillColor=#B266FF;fontColor=#ffffff;fontSize=20;" parent="1" vertex="1">
          <mxGeometry x="320" y="240" width="120" height="40" as="geometry" />
        </mxCell>
        <mxCell id="j3_hDJr5HbZZ_XaoxttT-4" value="Account" style="rounded=0;whiteSpace=wrap;html=1;strokeColor=#B266FF;fillColor=#B266FF;fontColor=#ffffff;fontSize=20;" parent="1" vertex="1">
          <mxGeometry x="640" y="240" width="120" height="40" as="geometry" />
        </mxCell>
        <mxCell id="j3_hDJr5HbZZ_XaoxttT-5" value="Other Pages" style="rounded=0;whiteSpace=wrap;html=1;strokeColor=#B266FF;fillColor=#FFFFFF;fontColor=#B266FF;fontSize=20;" parent="1" vertex="1">
          <mxGeometry x="880" y="240" width="120" height="40" as="geometry" />
        </mxCell>
        <mxCell id="j3_hDJr5HbZZ_XaoxttT-6" value="" style="endArrow=none;html=1;rounded=0;fontColor=#B266FF;entryX=0.5;entryY=1;entryDx=0;entryDy=0;" parent="1" target="j3_hDJr5HbZZ_XaoxttT-1" edge="1">
          <mxGeometry width="50" height="50" relative="1" as="geometry">
            <mxPoint x="540" y="200" as="sourcePoint" />
            <mxPoint x="450" y="280" as="targetPoint" />
          </mxGeometry>
        </mxCell>
        <mxCell id="j3_hDJr5HbZZ_XaoxttT-7" value="" style="endArrow=none;html=1;rounded=0;fontColor=#B266FF;" parent="1" edge="1">
          <mxGeometry width="50" height="50" relative="1" as="geometry">
            <mxPoint x="100" y="200" as="sourcePoint" />
            <mxPoint x="540" y="200" as="targetPoint" />
          </mxGeometry>
        </mxCell>
        <mxCell id="j3_hDJr5HbZZ_XaoxttT-8" value="" style="endArrow=none;html=1;rounded=0;fontColor=#B266FF;" parent="1" edge="1">
          <mxGeometry width="50" height="50" relative="1" as="geometry">
            <mxPoint x="700" y="200" as="sourcePoint" />
            <mxPoint x="540" y="200" as="targetPoint" />
          </mxGeometry>
        </mxCell>
        <mxCell id="j3_hDJr5HbZZ_XaoxttT-9" value="" style="endArrow=classic;html=1;rounded=0;fontColor=#B266FF;entryX=0.5;entryY=0;entryDx=0;entryDy=0;" parent="1" target="j3_hDJr5HbZZ_XaoxttT-3" edge="1">
          <mxGeometry width="50" height="50" relative="1" as="geometry">
            <mxPoint x="380" y="200" as="sourcePoint" />
            <mxPoint x="450" y="280" as="targetPoint" />
          </mxGeometry>
        </mxCell>
        <mxCell id="j3_hDJr5HbZZ_XaoxttT-10" value="" style="endArrow=classic;html=1;rounded=0;fontColor=#B266FF;entryX=0.5;entryY=0;entryDx=0;entryDy=0;" parent="1" target="j3_hDJr5HbZZ_XaoxttT-2" edge="1">
          <mxGeometry width="50" height="50" relative="1" as="geometry">
            <mxPoint x="100" y="200" as="sourcePoint" />
            <mxPoint x="450" y="280" as="targetPoint" />
          </mxGeometry>
        </mxCell>
        <mxCell id="j3_hDJr5HbZZ_XaoxttT-11" value="" style="endArrow=classic;html=1;rounded=0;fontColor=#B266FF;entryX=0.5;entryY=0;entryDx=0;entryDy=0;" parent="1" target="j3_hDJr5HbZZ_XaoxttT-4" edge="1">
          <mxGeometry width="50" height="50" relative="1" as="geometry">
            <mxPoint x="700" y="200" as="sourcePoint" />
            <mxPoint x="450" y="280" as="targetPoint" />
          </mxGeometry>
        </mxCell>
        <mxCell id="j3_hDJr5HbZZ_XaoxttT-12" value="External Content" style="endArrow=open;endSize=12;dashed=1;html=1;fontColor=#B266FF;entryX=0.5;entryY=0;entryDx=0;entryDy=0;labelBorderColor=default;horizontal=1;strokeColor=default;rounded=0;shadow=0;fontSize=15;" parent="1" target="j3_hDJr5HbZZ_XaoxttT-5" edge="1">
          <mxGeometry x="-0.1429" width="160" relative="1" as="geometry">
            <mxPoint x="700" y="200" as="sourcePoint" />
            <mxPoint x="500" y="310" as="targetPoint" />
            <Array as="points">
              <mxPoint x="940" y="200" />
            </Array>
            <mxPoint as="offset" />
          </mxGeometry>
        </mxCell>
        <mxCell id="j3_hDJr5HbZZ_XaoxttT-13" value="Categories" style="rounded=0;whiteSpace=wrap;html=1;fontColor=#ffffff;strokeColor=#3399FF;fillColor=#1ba1e2;fontSize=18;" parent="1" vertex="1">
          <mxGeometry x="160" y="320" width="120" height="40" as="geometry" />
        </mxCell>
        <mxCell id="j3_hDJr5HbZZ_XaoxttT-14" value="Collections" style="rounded=0;whiteSpace=wrap;html=1;fontColor=#ffffff;strokeColor=#3399FF;fillColor=#1ba1e2;fontSize=14;" parent="1" vertex="1">
          <mxGeometry x="240" y="400" width="80" height="40" as="geometry" />
        </mxCell>
        <mxCell id="j3_hDJr5HbZZ_XaoxttT-15" value="Featured" style="rounded=0;whiteSpace=wrap;html=1;fontColor=#ffffff;strokeColor=#3399FF;fillColor=#1ba1e2;fontSize=14;" parent="1" vertex="1">
          <mxGeometry x="240" y="480" width="80" height="40" as="geometry" />
        </mxCell>
        <mxCell id="j3_hDJr5HbZZ_XaoxttT-16" value="Clearance" style="rounded=0;whiteSpace=wrap;html=1;fontColor=#ffffff;strokeColor=#3399FF;fillColor=#1ba1e2;fontSize=14;" parent="1" vertex="1">
          <mxGeometry x="240" y="560" width="80" height="40" as="geometry" />
        </mxCell>
        <mxCell id="j3_hDJr5HbZZ_XaoxttT-17" value="Product&lt;br style=&quot;font-size: 18px;&quot;&gt;Details" style="rounded=0;whiteSpace=wrap;html=1;fontColor=#ffffff;strokeColor=#66B2FF;fillColor=#1ba1e2;fontSize=18;" parent="1" vertex="1">
          <mxGeometry x="160" y="640" width="120" height="40" as="geometry" />
        </mxCell>
        <mxCell id="j3_hDJr5HbZZ_XaoxttT-18" value="Compare&lt;br style=&quot;font-size: 18px;&quot;&gt;Products" style="rounded=0;whiteSpace=wrap;html=1;fontColor=#ffffff;strokeColor=#66B2FF;fillColor=#1ba1e2;fontSize=18;" parent="1" vertex="1">
          <mxGeometry x="160" y="720" width="120" height="40" as="geometry" />
        </mxCell>
        <mxCell id="j3_hDJr5HbZZ_XaoxttT-19" value="" style="endArrow=none;html=1;rounded=0;shadow=0;labelBorderColor=default;fontColor=#B266FF;strokeColor=default;entryX=0.5;entryY=1;entryDx=0;entryDy=0;" parent="1" target="j3_hDJr5HbZZ_XaoxttT-2" edge="1">
          <mxGeometry width="50" height="50" relative="1" as="geometry">
            <mxPoint x="100" y="740" as="sourcePoint" />
            <mxPoint x="450" y="470" as="targetPoint" />
          </mxGeometry>
        </mxCell>
        <mxCell id="j3_hDJr5HbZZ_XaoxttT-20" value="" style="endArrow=classic;html=1;rounded=0;shadow=0;labelBorderColor=default;fontColor=#B266FF;strokeColor=default;entryX=0;entryY=0.5;entryDx=0;entryDy=0;" parent="1" target="j3_hDJr5HbZZ_XaoxttT-13" edge="1">
          <mxGeometry width="50" height="50" relative="1" as="geometry">
            <mxPoint x="100" y="340" as="sourcePoint" />
            <mxPoint x="450" y="470" as="targetPoint" />
          </mxGeometry>
        </mxCell>
        <mxCell id="j3_hDJr5HbZZ_XaoxttT-21" value="" style="endArrow=none;html=1;rounded=0;shadow=0;labelBorderColor=default;fontColor=#B266FF;strokeColor=default;entryX=0.25;entryY=1;entryDx=0;entryDy=0;" parent="1" target="j3_hDJr5HbZZ_XaoxttT-13" edge="1">
          <mxGeometry width="50" height="50" relative="1" as="geometry">
            <mxPoint x="190" y="580" as="sourcePoint" />
            <mxPoint x="450" y="470" as="targetPoint" />
          </mxGeometry>
        </mxCell>
        <mxCell id="j3_hDJr5HbZZ_XaoxttT-22" value="" style="endArrow=classic;html=1;rounded=0;shadow=0;labelBorderColor=default;fontColor=#B266FF;strokeColor=default;entryX=0;entryY=0.5;entryDx=0;entryDy=0;" parent="1" target="j3_hDJr5HbZZ_XaoxttT-14" edge="1">
          <mxGeometry width="50" height="50" relative="1" as="geometry">
            <mxPoint x="190" y="420" as="sourcePoint" />
            <mxPoint x="450" y="470" as="targetPoint" />
          </mxGeometry>
        </mxCell>
        <mxCell id="j3_hDJr5HbZZ_XaoxttT-23" value="" style="endArrow=classic;html=1;rounded=0;shadow=0;labelBorderColor=default;fontColor=#B266FF;strokeColor=default;entryX=0;entryY=0.5;entryDx=0;entryDy=0;" parent="1" target="j3_hDJr5HbZZ_XaoxttT-15" edge="1">
          <mxGeometry width="50" height="50" relative="1" as="geometry">
            <mxPoint x="190" y="500" as="sourcePoint" />
            <mxPoint x="450" y="470" as="targetPoint" />
          </mxGeometry>
        </mxCell>
        <mxCell id="j3_hDJr5HbZZ_XaoxttT-24" value="" style="endArrow=classic;html=1;rounded=0;shadow=0;labelBorderColor=default;fontColor=#B266FF;strokeColor=default;entryX=0;entryY=0.5;entryDx=0;entryDy=0;" parent="1" target="j3_hDJr5HbZZ_XaoxttT-16" edge="1">
          <mxGeometry width="50" height="50" relative="1" as="geometry">
            <mxPoint x="190" y="580" as="sourcePoint" />
            <mxPoint x="450" y="470" as="targetPoint" />
          </mxGeometry>
        </mxCell>
        <mxCell id="j3_hDJr5HbZZ_XaoxttT-25" value="" style="endArrow=classic;html=1;rounded=0;shadow=0;labelBorderColor=default;fontColor=#B266FF;strokeColor=default;entryX=0;entryY=0.5;entryDx=0;entryDy=0;" parent="1" target="j3_hDJr5HbZZ_XaoxttT-17" edge="1">
          <mxGeometry width="50" height="50" relative="1" as="geometry">
            <mxPoint x="100" y="660" as="sourcePoint" />
            <mxPoint x="450" y="470" as="targetPoint" />
          </mxGeometry>
        </mxCell>
        <mxCell id="j3_hDJr5HbZZ_XaoxttT-26" value="" style="endArrow=classic;html=1;rounded=0;shadow=0;labelBorderColor=default;fontColor=#B266FF;strokeColor=default;entryX=0;entryY=0.5;entryDx=0;entryDy=0;" parent="1" target="j3_hDJr5HbZZ_XaoxttT-18" edge="1">
          <mxGeometry width="50" height="50" relative="1" as="geometry">
            <mxPoint x="100" y="740" as="sourcePoint" />
            <mxPoint x="450" y="470" as="targetPoint" />
          </mxGeometry>
        </mxCell>
        <mxCell id="j3_hDJr5HbZZ_XaoxttT-27" value="Order&lt;br style=&quot;font-size: 14px;&quot;&gt;Summary" style="rounded=0;whiteSpace=wrap;html=1;fontColor=#ffffff;strokeColor=#66B2FF;fillColor=#1ba1e2;fontSize=14;" parent="1" vertex="1">
          <mxGeometry x="420" y="320" width="120" height="40" as="geometry" />
        </mxCell>
        <mxCell id="j3_hDJr5HbZZ_XaoxttT-28" value="Shipping&lt;br style=&quot;font-size: 14px;&quot;&gt;Method" style="rounded=0;whiteSpace=wrap;html=1;fontColor=#ffffff;strokeColor=#66B2FF;fillColor=#1ba1e2;fontSize=14;" parent="1" vertex="1">
          <mxGeometry x="420" y="400" width="120" height="40" as="geometry" />
        </mxCell>
        <mxCell id="j3_hDJr5HbZZ_XaoxttT-29" value="Payment&lt;br style=&quot;font-size: 14px;&quot;&gt;Method" style="rounded=0;whiteSpace=wrap;html=1;fontColor=#ffffff;strokeColor=#66B2FF;fillColor=#1ba1e2;fontSize=14;" parent="1" vertex="1">
          <mxGeometry x="420" y="480" width="120" height="40" as="geometry" />
        </mxCell>
        <mxCell id="j3_hDJr5HbZZ_XaoxttT-30" value="Shipping" style="rounded=0;whiteSpace=wrap;html=1;fontColor=#ffffff;strokeColor=#66B2FF;fillColor=#1ba1e2;fontSize=16;" parent="1" vertex="1">
          <mxGeometry x="420" y="560" width="120" height="40" as="geometry" />
        </mxCell>
        <mxCell id="j3_hDJr5HbZZ_XaoxttT-31" value="" style="endArrow=none;html=1;rounded=0;shadow=0;labelBorderColor=default;fontColor=#B266FF;strokeColor=default;entryX=0.5;entryY=1;entryDx=0;entryDy=0;" parent="1" target="j3_hDJr5HbZZ_XaoxttT-3" edge="1">
          <mxGeometry width="50" height="50" relative="1" as="geometry">
            <mxPoint x="380" y="580" as="sourcePoint" />
            <mxPoint x="450" y="450" as="targetPoint" />
          </mxGeometry>
        </mxCell>
        <mxCell id="j3_hDJr5HbZZ_XaoxttT-32" value="" style="endArrow=classic;html=1;rounded=0;shadow=0;labelBorderColor=default;fontColor=#B266FF;strokeColor=default;entryX=0;entryY=0.5;entryDx=0;entryDy=0;" parent="1" target="j3_hDJr5HbZZ_XaoxttT-27" edge="1">
          <mxGeometry width="50" height="50" relative="1" as="geometry">
            <mxPoint x="380" y="340" as="sourcePoint" />
            <mxPoint x="450" y="450" as="targetPoint" />
          </mxGeometry>
        </mxCell>
        <mxCell id="j3_hDJr5HbZZ_XaoxttT-33" value="" style="endArrow=classic;html=1;rounded=0;shadow=0;labelBorderColor=default;fontColor=#B266FF;strokeColor=default;entryX=0;entryY=0.5;entryDx=0;entryDy=0;" parent="1" target="j3_hDJr5HbZZ_XaoxttT-28" edge="1">
          <mxGeometry width="50" height="50" relative="1" as="geometry">
            <mxPoint x="380" y="420" as="sourcePoint" />
            <mxPoint x="450" y="450" as="targetPoint" />
          </mxGeometry>
        </mxCell>
        <mxCell id="j3_hDJr5HbZZ_XaoxttT-34" value="" style="endArrow=classic;html=1;rounded=0;shadow=0;labelBorderColor=default;fontColor=#B266FF;strokeColor=default;entryX=0;entryY=0.5;entryDx=0;entryDy=0;" parent="1" target="j3_hDJr5HbZZ_XaoxttT-29" edge="1">
          <mxGeometry width="50" height="50" relative="1" as="geometry">
            <mxPoint x="380" y="500" as="sourcePoint" />
            <mxPoint x="450" y="450" as="targetPoint" />
          </mxGeometry>
        </mxCell>
        <mxCell id="j3_hDJr5HbZZ_XaoxttT-36" value="" style="endArrow=classic;html=1;rounded=0;shadow=0;labelBorderColor=default;fontColor=#B266FF;strokeColor=default;entryX=0;entryY=0.5;entryDx=0;entryDy=0;" parent="1" target="j3_hDJr5HbZZ_XaoxttT-30" edge="1">
          <mxGeometry width="50" height="50" relative="1" as="geometry">
            <mxPoint x="380" y="580" as="sourcePoint" />
            <mxPoint x="450" y="450" as="targetPoint" />
          </mxGeometry>
        </mxCell>
        <mxCell id="j3_hDJr5HbZZ_XaoxttT-37" value="Profile" style="rounded=0;whiteSpace=wrap;html=1;fontColor=#ffffff;strokeColor=#66B2FF;fillColor=#1ba1e2;fontSize=20;" parent="1" vertex="1">
          <mxGeometry x="710" y="320" width="130" height="40" as="geometry" />
        </mxCell>
        <mxCell id="j3_hDJr5HbZZ_XaoxttT-38" value="Payment&lt;br style=&quot;font-size: 18px;&quot;&gt;Methods" style="rounded=0;whiteSpace=wrap;html=1;fontColor=#ffffff;strokeColor=#66B2FF;fillColor=#1ba1e2;fontSize=18;" parent="1" vertex="1">
          <mxGeometry x="710" y="400" width="130" height="40" as="geometry" />
        </mxCell>
        <mxCell id="j3_hDJr5HbZZ_XaoxttT-39" value="Password" style="rounded=0;whiteSpace=wrap;html=1;fontColor=#ffffff;strokeColor=#66B2FF;fillColor=#1ba1e2;fontSize=20;" parent="1" vertex="1">
          <mxGeometry x="710" y="480" width="130" height="40" as="geometry" />
        </mxCell>
        <mxCell id="j3_hDJr5HbZZ_XaoxttT-40" value="Saved&lt;br style=&quot;font-size: 18px;&quot;&gt;Addresses" style="rounded=0;whiteSpace=wrap;html=1;fontColor=#ffffff;strokeColor=#66B2FF;fillColor=#1ba1e2;fontSize=18;" parent="1" vertex="1">
          <mxGeometry x="710" y="560" width="130" height="40" as="geometry" />
        </mxCell>
        <mxCell id="j3_hDJr5HbZZ_XaoxttT-41" value="Order&lt;br style=&quot;font-size: 18px;&quot;&gt;History" style="rounded=0;whiteSpace=wrap;html=1;fontColor=#ffffff;strokeColor=#66B2FF;fillColor=#1ba1e2;fontSize=18;" parent="1" vertex="1">
          <mxGeometry x="710" y="640" width="130" height="40" as="geometry" />
        </mxCell>
        <mxCell id="j3_hDJr5HbZZ_XaoxttT-42" value="Gift Cards" style="rounded=0;whiteSpace=wrap;html=1;fontColor=#ffffff;strokeColor=#66B2FF;fillColor=#1ba1e2;fontSize=20;" parent="1" vertex="1">
          <mxGeometry x="710" y="720" width="130" height="40" as="geometry" />
        </mxCell>
        <mxCell id="j3_hDJr5HbZZ_XaoxttT-43" value="" style="endArrow=none;html=1;rounded=0;shadow=0;labelBorderColor=default;fontColor=#B266FF;strokeColor=default;entryX=0.25;entryY=1;entryDx=0;entryDy=0;" parent="1" target="j3_hDJr5HbZZ_XaoxttT-4" edge="1">
          <mxGeometry width="50" height="50" relative="1" as="geometry">
            <mxPoint x="670" y="740" as="sourcePoint" />
            <mxPoint x="450" y="450" as="targetPoint" />
          </mxGeometry>
        </mxCell>
        <mxCell id="j3_hDJr5HbZZ_XaoxttT-44" value="" style="endArrow=classic;html=1;rounded=0;shadow=0;labelBorderColor=default;fontColor=#B266FF;strokeColor=default;entryX=0;entryY=0.5;entryDx=0;entryDy=0;" parent="1" target="j3_hDJr5HbZZ_XaoxttT-37" edge="1">
          <mxGeometry width="50" height="50" relative="1" as="geometry">
            <mxPoint x="670" y="340" as="sourcePoint" />
            <mxPoint x="450" y="450" as="targetPoint" />
          </mxGeometry>
        </mxCell>
        <mxCell id="j3_hDJr5HbZZ_XaoxttT-45" value="" style="endArrow=classic;html=1;rounded=0;shadow=0;labelBorderColor=default;fontColor=#B266FF;strokeColor=default;entryX=0;entryY=0.5;entryDx=0;entryDy=0;" parent="1" target="j3_hDJr5HbZZ_XaoxttT-38" edge="1">
          <mxGeometry width="50" height="50" relative="1" as="geometry">
            <mxPoint x="670" y="420" as="sourcePoint" />
            <mxPoint x="450" y="450" as="targetPoint" />
          </mxGeometry>
        </mxCell>
        <mxCell id="j3_hDJr5HbZZ_XaoxttT-46" value="" style="endArrow=classic;html=1;rounded=0;shadow=0;labelBorderColor=default;fontColor=#B266FF;strokeColor=default;entryX=0;entryY=0.5;entryDx=0;entryDy=0;" parent="1" target="j3_hDJr5HbZZ_XaoxttT-39" edge="1">
          <mxGeometry width="50" height="50" relative="1" as="geometry">
            <mxPoint x="670" y="500" as="sourcePoint" />
            <mxPoint x="720" y="430" as="targetPoint" />
          </mxGeometry>
        </mxCell>
        <mxCell id="j3_hDJr5HbZZ_XaoxttT-47" value="" style="endArrow=classic;html=1;rounded=0;shadow=0;labelBorderColor=default;fontColor=#B266FF;strokeColor=default;entryX=0;entryY=0.5;entryDx=0;entryDy=0;" parent="1" target="j3_hDJr5HbZZ_XaoxttT-40" edge="1">
          <mxGeometry width="50" height="50" relative="1" as="geometry">
            <mxPoint x="670" y="580" as="sourcePoint" />
            <mxPoint x="730" y="440" as="targetPoint" />
          </mxGeometry>
        </mxCell>
        <mxCell id="j3_hDJr5HbZZ_XaoxttT-48" value="" style="endArrow=classic;html=1;rounded=0;shadow=0;labelBorderColor=default;fontColor=#B266FF;strokeColor=default;entryX=0;entryY=0.5;entryDx=0;entryDy=0;" parent="1" target="j3_hDJr5HbZZ_XaoxttT-41" edge="1">
          <mxGeometry width="50" height="50" relative="1" as="geometry">
            <mxPoint x="670" y="660" as="sourcePoint" />
            <mxPoint x="740" y="450" as="targetPoint" />
          </mxGeometry>
        </mxCell>
        <mxCell id="j3_hDJr5HbZZ_XaoxttT-49" value="" style="endArrow=classic;html=1;rounded=0;shadow=0;labelBorderColor=default;fontColor=#B266FF;strokeColor=default;entryX=0;entryY=0.5;entryDx=0;entryDy=0;" parent="1" target="j3_hDJr5HbZZ_XaoxttT-42" edge="1">
          <mxGeometry width="50" height="50" relative="1" as="geometry">
            <mxPoint x="670" y="740" as="sourcePoint" />
            <mxPoint x="750" y="460" as="targetPoint" />
          </mxGeometry>
        </mxCell>
        <mxCell id="j3_hDJr5HbZZ_XaoxttT-50" value="Blog" style="rounded=0;whiteSpace=wrap;html=1;fontColor=#66B2FF;strokeColor=#66B2FF;fillColor=#FFFFFF;fontSize=20;" parent="1" vertex="1">
          <mxGeometry x="960" y="320" width="120" height="40" as="geometry" />
        </mxCell>
        <mxCell id="j3_hDJr5HbZZ_XaoxttT-51" value="Support Desk" style="rounded=0;whiteSpace=wrap;html=1;fontColor=#66B2FF;strokeColor=#66B2FF;fillColor=#FFFFFF;fontSize=18;" parent="1" vertex="1">
          <mxGeometry x="960" y="400" width="120" height="40" as="geometry" />
        </mxCell>
        <mxCell id="j3_hDJr5HbZZ_XaoxttT-52" value="Facebook" style="rounded=0;whiteSpace=wrap;html=1;fontColor=#66B2FF;strokeColor=#66B2FF;fillColor=#FFFFFF;fontSize=18;" parent="1" vertex="1">
          <mxGeometry x="960" y="480" width="120" height="40" as="geometry" />
        </mxCell>
        <mxCell id="j3_hDJr5HbZZ_XaoxttT-53" value="Twitter" style="rounded=0;whiteSpace=wrap;html=1;fontColor=#66B2FF;strokeColor=#66B2FF;fillColor=#FFFFFF;fontSize=20;" parent="1" vertex="1">
          <mxGeometry x="960" y="560" width="120" height="40" as="geometry" />
        </mxCell>
        <mxCell id="j3_hDJr5HbZZ_XaoxttT-54" value="Track Code" style="rounded=0;whiteSpace=wrap;html=1;fontColor=#66B2FF;strokeColor=#66B2FF;fillColor=#FFFFFF;fontSize=18;" parent="1" vertex="1">
          <mxGeometry x="960" y="640" width="120" height="40" as="geometry" />
        </mxCell>
        <mxCell id="j3_hDJr5HbZZ_XaoxttT-55" value="Blog" style="rounded=0;whiteSpace=wrap;html=1;fontColor=#66B2FF;strokeColor=#66B2FF;fillColor=#FFFFFF;fontSize=20;" parent="1" vertex="1">
          <mxGeometry x="960" y="720" width="120" height="40" as="geometry" />
        </mxCell>
        <mxCell id="j3_hDJr5HbZZ_XaoxttT-56" value="" style="endArrow=none;dashed=1;html=1;rounded=0;shadow=0;labelBorderColor=default;fontColor=#66B2FF;strokeColor=default;exitX=0.25;exitY=1;exitDx=0;exitDy=0;" parent="1" source="j3_hDJr5HbZZ_XaoxttT-5" edge="1">
          <mxGeometry width="50" height="50" relative="1" as="geometry">
            <mxPoint x="400" y="480" as="sourcePoint" />
            <mxPoint x="910" y="740" as="targetPoint" />
          </mxGeometry>
        </mxCell>
        <mxCell id="j3_hDJr5HbZZ_XaoxttT-58" value="" style="endArrow=open;dashed=1;endFill=0;endSize=12;html=1;rounded=0;shadow=0;labelBorderColor=default;fontColor=#66B2FF;strokeColor=default;" parent="1" target="j3_hDJr5HbZZ_XaoxttT-50" edge="1">
          <mxGeometry width="160" relative="1" as="geometry">
            <mxPoint x="910" y="340" as="sourcePoint" />
            <mxPoint x="500" y="450" as="targetPoint" />
          </mxGeometry>
        </mxCell>
        <mxCell id="j3_hDJr5HbZZ_XaoxttT-59" value="" style="endArrow=open;dashed=1;endFill=0;endSize=12;html=1;rounded=0;shadow=0;labelBorderColor=default;fontColor=#66B2FF;strokeColor=default;entryX=0;entryY=0.5;entryDx=0;entryDy=0;" parent="1" target="j3_hDJr5HbZZ_XaoxttT-51" edge="1">
          <mxGeometry width="160" relative="1" as="geometry">
            <mxPoint x="910" y="420" as="sourcePoint" />
            <mxPoint x="970" y="350" as="targetPoint" />
          </mxGeometry>
        </mxCell>
        <mxCell id="j3_hDJr5HbZZ_XaoxttT-60" value="" style="endArrow=open;dashed=1;endFill=0;endSize=12;html=1;rounded=0;shadow=0;labelBorderColor=default;fontColor=#66B2FF;strokeColor=default;entryX=0;entryY=0.5;entryDx=0;entryDy=0;" parent="1" target="j3_hDJr5HbZZ_XaoxttT-52" edge="1">
          <mxGeometry width="160" relative="1" as="geometry">
            <mxPoint x="910" y="500" as="sourcePoint" />
            <mxPoint x="980" y="360" as="targetPoint" />
          </mxGeometry>
        </mxCell>
        <mxCell id="j3_hDJr5HbZZ_XaoxttT-61" value="" style="endArrow=open;dashed=1;endFill=0;endSize=12;html=1;rounded=0;shadow=0;labelBorderColor=default;fontColor=#66B2FF;strokeColor=default;entryX=0;entryY=0.5;entryDx=0;entryDy=0;" parent="1" target="j3_hDJr5HbZZ_XaoxttT-53" edge="1">
          <mxGeometry width="160" relative="1" as="geometry">
            <mxPoint x="910" y="580" as="sourcePoint" />
            <mxPoint x="990" y="370" as="targetPoint" />
          </mxGeometry>
        </mxCell>
        <mxCell id="j3_hDJr5HbZZ_XaoxttT-62" value="" style="endArrow=open;dashed=1;endFill=0;endSize=12;html=1;rounded=0;shadow=0;labelBorderColor=default;fontColor=#66B2FF;strokeColor=default;entryX=0;entryY=0.5;entryDx=0;entryDy=0;" parent="1" target="j3_hDJr5HbZZ_XaoxttT-54" edge="1">
          <mxGeometry width="160" relative="1" as="geometry">
            <mxPoint x="910" y="660" as="sourcePoint" />
            <mxPoint x="1000" y="380" as="targetPoint" />
          </mxGeometry>
        </mxCell>
        <mxCell id="j3_hDJr5HbZZ_XaoxttT-63" value="" style="endArrow=open;dashed=1;endFill=0;endSize=12;html=1;rounded=0;shadow=0;labelBorderColor=default;fontColor=#66B2FF;strokeColor=default;entryX=0;entryY=0.5;entryDx=0;entryDy=0;" parent="1" target="j3_hDJr5HbZZ_XaoxttT-55" edge="1">
          <mxGeometry width="160" relative="1" as="geometry">
            <mxPoint x="910" y="740" as="sourcePoint" />
            <mxPoint x="1010" y="390" as="targetPoint" />
          </mxGeometry>
        </mxCell>
      </root>
    </mxGraphModel>
  </diagram>
</mxfile>
